<svg height="1024" width="1024" xmlns="http://www.w3.org/2000/svg"><path d="m919 673-2-8-151 14c-11 2-21 11-22 23l-4 59-116 9-8-54c-2-12-12-21-25-21H433c-13 0-23 9-25 21l-8 54-116-9-4-59c-1-12-11-21-22-23l-151-14-2 8-1 33 128 20 4 60c1 12 11 22 23 23l161 11h1c12 0 23-9 25-21l8-55h116l8 55a25 25 0 0 0 26 21l161-11c12-1 22-11 23-23l4-60 127-20z" fill="#fff"/><path d="M105 427v246h1l151 15c8 1 14 7 14 15l5 66 131 10 9-62c2-8 8-14 17-14h158c9 0 15 6 17 14l9 62 131-10 5-66c0-8 6-14 14-15l151-15h1V427c22-26 42-56 57-81-24-40-52-75-83-109-29 15-56 31-83 48-13-13-28-23-42-34-14-12-30-20-46-30 5-34 7-67 8-102-39-20-81-33-124-42-17 28-32 59-46 89l-48-4-48 4c-14-30-29-61-46-89-43 9-85 22-124 42 1 35 3 68 8 102-16 10-32 18-46 30-14 11-29 21-42 34-27-17-54-33-83-48-31 34-59 69-83 109 18 29 38 59 57 81z" fill="#478cbf"/><path d="m784 719-5 67c0 8-7 14-15 15l-160 11h-1c-8 0-15-6-16-14l-10-62H447l-10 62c-1 9-8 15-17 14l-160-11c-8-1-15-7-15-15l-5-67-136-13 1 33c0 143 181 212 407 213 226-1 407-70 407-213l1-33z" fill="#478cbf"/><path d="M389 527a91 91 0 1 1-181 0 91 91 0 0 1 181 0" fill="#fff"/><path d="M367 533a60 60 0 1 1-120 0 60 60 0 0 1 120 0" fill="#414042"/><path d="M512 626c-16 0-29-12-29-26v-84c0-15 13-26 29-26s29 11 29 26v84c0 14-13 26-29 26M635 527a91 91 0 1 0 181 0 91 91 0 0 0-181 0" fill="#fff"/><path d="M657 533a60 60 0 1 0 120 0 60 60 0 0 0-120 0" fill="#414042"/></svg>