<svg id="Layer_1" data-name="Layer 1" xmlns="http://www.w3.org/2000/svg" viewBox="0 0 336 336"><defs><style>.cls-1{fill:#fff;fill-rule:evenodd}</style></defs><path class="cls-1" d="M264 191c-3 14-15 48-55 67l-16-18-26 27a99 99 0 0 1-79-40 39 39 0 0 0 9 2c5 0 9-2 9-9v-73a12 12 0 0 0-15-12c-12 3-22 34-22 34a98 98 0 0 1 34-76 100 100 0 0 1 50-23c-13 8-21 20-21 31 0 17 10 15 13 12v99a16 16 0 0 0 2 3 14 14 0 0 0 12 6c11 0 24-12 24-12v-79c0-8-6-18-12-21 0 0 11-2 20 4a75 75 0 0 1 5-5c20-20 39-26 55-29s-29 23-29 54l1 78c11 10 27-5 41-20Z"/><path class="cls-1" d="M168 6a162 162 0 1 0 162 162A162 162 0 0 0 168 6Zm0 317a155 155 0 1 1 155-155 155 155 0 0 1-155 155Z"/></svg>